# xmcd
#
# Track frame offsets:
#	150
#	15506
#	32462
#	47420
#	62251
#	78593
#
# Disc length: 1336 seconds
#
# Revision: 1
# Processed by: cddbd v1.5.2PL0 Copyright (c) Steve Scherf et al.
# Submitted via: audiograbber 1.83.01
#
DISCID=35053606
DTITLE=Jesse Terry - The Calm and the Storm
DYEAR=2016
DGENRE=Country
TTITLE0=Noise
TTITLE1=Never Heard the Storm
TTITLE2=End of the World
TTITLE3=Changing of the Guard
TTITLE4=Free No More
TTITLE5=Vincent (Starry, Starry Night)
EXTD=
EXTT0=
EXTT1=
EXTT2=
EXTT3=
EXTT4=
EXTT5=
PLAYORDER=
